# xmcd
#
# Track frame offsets: 
#        150
#        8665
#        19118
#        32342
#        55928
#        77501
#        95865
#        118689
#        143275
#        153646
#        167845
#        185944
#        200427
#        232575
#        245745
#        268145
#
# Disc length: 3849 seconds
#
# Revision: 0
# Processed by: cddbd v1.5.2PL0 Copyright (c) Steve Scherf et al.
# Submitted via: ExactAudioCopy v0.99pb5
#
DISCID=ce0f0710
DTITLE=Three Day Threshold - Lost in Belgium
DYEAR=2008
DGENRE=Country
TTITLE0=Intro
TTITLE1=Gone Part 3
TTITLE2=Gone Part 1
TTITLE3=Black River Gold
TTITLE4=Folsom Prison
TTITLE5=You Look Like Rain
TTITLE6=Pitchfork
TTITLE7=Compass
TTITLE8=Smoke on the Undisclosed Location Breakdown
TTITLE9=Roll in My Sweet Baby's Arms
TTITLE10=Billy
TTITLE11=Gone Part 2
TTITLE12=Thrown Out
TTITLE13=Pub with No Beer
TTITLE14=Drunken Sailor
TTITLE15=Face Up
EXTD=
EXTT0=
EXTT1=
EXTT2=
EXTT3=
EXTT4=
EXTT5=
EXTT6=
EXTT7=
EXTT8=
EXTT9=
EXTT10=
EXTT11=
EXTT12=
EXTT13=
EXTT14=
EXTT15=
PLAYORDER=
